<!--tamago-dark 2--><svg xmlns="http://www.w3.org/2000/svg" width="760" height="300" viewBox="0 0 760 300" font-family="sans-serif">
<rect width="760" height="300" fill="#e8e6e1"/>
<text x="50" y="16" font-size="13" fill="#c9d1d9">空き容量の推移（直近24時間・disk_guardian.log実測）</text>
<rect x="50.0" y="20" width="28.8" height="240" fill="#ff7b72" opacity="0.12"/><rect x="78.8" y="20" width="28.8" height="240" fill="#ff7b72" opacity="0.12"/><rect x="136.2" y="20" width="28.8" height="240" fill="#ff7b72" opacity="0.12"/><rect x="280.0" y="20" width="28.8" height="240" fill="#ff7b72" opacity="0.12"/><rect x="337.5" y="20" width="28.8" height="240" fill="#ff7b72" opacity="0.12"/><rect x="395.0" y="20" width="28.8" height="240" fill="#ff7b72" opacity="0.12"/><rect x="423.8" y="20" width="28.8" height="240" fill="#ff7b72" opacity="0.12"/><rect x="481.2" y="20" width="28.8" height="240" fill="#ff7b72" opacity="0.12"/><rect x="510.0" y="20" width="28.8" height="240" fill="#ff7b72" opacity="0.12"/><rect x="538.8" y="20" width="28.8" height="240" fill="#ff7b72" opacity="0.12"/><rect x="567.5" y="20" width="28.8" height="240" fill="#ff7b72" opacity="0.12"/><rect x="596.2" y="20" width="28.8" height="240" fill="#ff7b72" opacity="0.12"/><rect x="625.0" y="20" width="28.8" height="240" fill="#ff7b72" opacity="0.12"/><rect x="711.2" y="20" width="28.8" height="240" fill="#ff7b72" opacity="0.12"/>
<polyline points="50.0,194.2 78.8,207.2 107.5,224.8 136.2,200.7 165.0,235.9 193.8,223.9 222.5,229.4 251.2,235.0 280.0,20.0 308.8,55.2 337.5,58.0 366.2,78.4 395.0,74.7 423.8,83.9 452.5,110.8 481.2,116.4 510.0,128.4 538.8,151.6 567.5,182.2 596.2,201.6 625.0,213.7 653.8,246.1 682.5,240.5 711.2,214.6 740.0,260.0" fill="none" stroke="#79c0ff" stroke-width="2"/>
<circle cx="50.0" cy="194.2" r="3" fill="#79c0ff"/><circle cx="78.8" cy="207.2" r="3" fill="#79c0ff"/><circle cx="107.5" cy="224.8" r="3" fill="#79c0ff"/><circle cx="136.2" cy="200.7" r="3" fill="#79c0ff"/><circle cx="165.0" cy="235.9" r="3" fill="#79c0ff"/><circle cx="193.8" cy="223.9" r="3" fill="#79c0ff"/><circle cx="222.5" cy="229.4" r="3" fill="#79c0ff"/><circle cx="251.2" cy="235.0" r="3" fill="#79c0ff"/><circle cx="280.0" cy="20.0" r="3" fill="#79c0ff"/><circle cx="308.8" cy="55.2" r="3" fill="#79c0ff"/><circle cx="337.5" cy="58.0" r="3" fill="#79c0ff"/><circle cx="366.2" cy="78.4" r="3" fill="#79c0ff"/><circle cx="395.0" cy="74.7" r="3" fill="#79c0ff"/><circle cx="423.8" cy="83.9" r="3" fill="#79c0ff"/><circle cx="452.5" cy="110.8" r="3" fill="#79c0ff"/><circle cx="481.2" cy="116.4" r="3" fill="#79c0ff"/><circle cx="510.0" cy="128.4" r="3" fill="#79c0ff"/><circle cx="538.8" cy="151.6" r="3" fill="#79c0ff"/><circle cx="567.5" cy="182.2" r="3" fill="#79c0ff"/><circle cx="596.2" cy="201.6" r="3" fill="#79c0ff"/><circle cx="625.0" cy="213.7" r="3" fill="#79c0ff"/><circle cx="653.8" cy="246.1" r="3" fill="#79c0ff"/><circle cx="682.5" cy="240.5" r="3" fill="#79c0ff"/><circle cx="711.2" cy="214.6" r="3" fill="#79c0ff"/><circle cx="740.0" cy="260.0" r="3" fill="#79c0ff"/>
<text x="5" y="24.0" font-size="11" fill="#79c0ff">105.5GB</text>
<text x="5" y="264.0" font-size="11" fill="#79c0ff">79.6GB</text>
<text x="50.0" y="275" font-size="10" fill="#9aa4ae" text-anchor="middle">04:31</text><text x="136.2" y="275" font-size="10" fill="#9aa4ae" text-anchor="middle">07:31</text><text x="222.5" y="275" font-size="10" fill="#9aa4ae" text-anchor="middle">10:31</text><text x="308.8" y="275" font-size="10" fill="#9aa4ae" text-anchor="middle">13:31</text><text x="395.0" y="275" font-size="10" fill="#9aa4ae" text-anchor="middle">16:31</text><text x="481.2" y="275" font-size="10" fill="#9aa4ae" text-anchor="middle">19:31</text><text x="567.5" y="275" font-size="10" fill="#9aa4ae" text-anchor="middle">22:31</text><text x="653.8" y="275" font-size="10" fill="#9aa4ae" text-anchor="middle">01:31</text><text x="740.0" y="275" font-size="10" fill="#9aa4ae" text-anchor="middle">04:31</text>
</svg>