<svg xmlns="http://www.w3.org/2000/svg" width="760" height="300" viewBox="0 0 760 300" font-family="sans-serif">
<rect width="760" height="300" fill="#ffffff"/>
<text x="50" y="16" font-size="13" fill="#111">空き容量の推移（直近24時間・disk_guardian.log実測）</text>
<rect x="251.2" y="20" width="28.8" height="240" fill="#ef4444" opacity="0.12"/><rect x="308.8" y="20" width="28.8" height="240" fill="#ef4444" opacity="0.12"/><rect x="423.8" y="20" width="28.8" height="240" fill="#ef4444" opacity="0.12"/><rect x="481.2" y="20" width="28.8" height="240" fill="#ef4444" opacity="0.12"/><rect x="510.0" y="20" width="28.8" height="240" fill="#ef4444" opacity="0.12"/><rect x="625.0" y="20" width="28.8" height="240" fill="#ef4444" opacity="0.12"/><rect x="653.8" y="20" width="28.8" height="240" fill="#ef4444" opacity="0.12"/><rect x="682.5" y="20" width="28.8" height="240" fill="#ef4444" opacity="0.12"/>
<polyline points="50.0,21.4 78.8,20.0 107.5,25.6 136.2,27.0 165.0,39.5 193.8,46.5 222.5,59.1 251.2,61.9 280.0,78.6 308.8,82.8 337.5,96.7 366.2,105.1 395.0,117.7 423.8,130.2 452.5,144.2 481.2,151.2 510.0,165.1 538.8,179.1 567.5,187.4 596.2,200.0 625.0,205.6 653.8,219.5 682.5,233.5 711.2,248.8 740.0,260.0" fill="none" stroke="#2563eb" stroke-width="2"/>
<circle cx="50.0" cy="21.4" r="3" fill="#2563eb"/><circle cx="78.8" cy="20.0" r="3" fill="#2563eb"/><circle cx="107.5" cy="25.6" r="3" fill="#2563eb"/><circle cx="136.2" cy="27.0" r="3" fill="#2563eb"/><circle cx="165.0" cy="39.5" r="3" fill="#2563eb"/><circle cx="193.8" cy="46.5" r="3" fill="#2563eb"/><circle cx="222.5" cy="59.1" r="3" fill="#2563eb"/><circle cx="251.2" cy="61.9" r="3" fill="#2563eb"/><circle cx="280.0" cy="78.6" r="3" fill="#2563eb"/><circle cx="308.8" cy="82.8" r="3" fill="#2563eb"/><circle cx="337.5" cy="96.7" r="3" fill="#2563eb"/><circle cx="366.2" cy="105.1" r="3" fill="#2563eb"/><circle cx="395.0" cy="117.7" r="3" fill="#2563eb"/><circle cx="423.8" cy="130.2" r="3" fill="#2563eb"/><circle cx="452.5" cy="144.2" r="3" fill="#2563eb"/><circle cx="481.2" cy="151.2" r="3" fill="#2563eb"/><circle cx="510.0" cy="165.1" r="3" fill="#2563eb"/><circle cx="538.8" cy="179.1" r="3" fill="#2563eb"/><circle cx="567.5" cy="187.4" r="3" fill="#2563eb"/><circle cx="596.2" cy="200.0" r="3" fill="#2563eb"/><circle cx="625.0" cy="205.6" r="3" fill="#2563eb"/><circle cx="653.8" cy="219.5" r="3" fill="#2563eb"/><circle cx="682.5" cy="233.5" r="3" fill="#2563eb"/><circle cx="711.2" cy="248.8" r="3" fill="#2563eb"/><circle cx="740.0" cy="260.0" r="3" fill="#2563eb"/>
<text x="5" y="24.0" font-size="11" fill="#2563eb">106.1GB</text>
<text x="5" y="264.0" font-size="11" fill="#2563eb">88.9GB</text>
<text x="50.0" y="275" font-size="10" fill="#555" text-anchor="middle">02:04</text><text x="136.2" y="275" font-size="10" fill="#555" text-anchor="middle">05:04</text><text x="222.5" y="275" font-size="10" fill="#555" text-anchor="middle">08:04</text><text x="308.8" y="275" font-size="10" fill="#555" text-anchor="middle">11:04</text><text x="395.0" y="275" font-size="10" fill="#555" text-anchor="middle">14:04</text><text x="481.2" y="275" font-size="10" fill="#555" text-anchor="middle">17:04</text><text x="567.5" y="275" font-size="10" fill="#555" text-anchor="middle">20:04</text><text x="653.8" y="275" font-size="10" fill="#555" text-anchor="middle">23:04</text><text x="740.0" y="275" font-size="10" fill="#555" text-anchor="middle">02:04</text>
</svg>