<svg xmlns="http://www.w3.org/2000/svg" width="760" height="300" viewBox="0 0 760 300" font-family="sans-serif">
<rect width="760" height="300" fill="#ffffff"/>
<text x="50" y="16" font-size="13" fill="#111">空き容量の推移（直近24時間・disk_guardian.log実測）</text>
<rect x="78.8" y="20" width="28.8" height="240" fill="#ef4444" opacity="0.12"/><rect x="136.2" y="20" width="28.8" height="240" fill="#ef4444" opacity="0.12"/><rect x="165.0" y="20" width="28.8" height="240" fill="#ef4444" opacity="0.12"/><rect x="280.0" y="20" width="28.8" height="240" fill="#ef4444" opacity="0.12"/><rect x="366.2" y="20" width="28.8" height="240" fill="#ef4444" opacity="0.12"/><rect x="452.5" y="20" width="28.8" height="240" fill="#ef4444" opacity="0.12"/><rect x="567.5" y="20" width="28.8" height="240" fill="#ef4444" opacity="0.12"/><rect x="596.2" y="20" width="28.8" height="240" fill="#ef4444" opacity="0.12"/><rect x="625.0" y="20" width="28.8" height="240" fill="#ef4444" opacity="0.12"/><rect x="682.5" y="20" width="28.8" height="240" fill="#ef4444" opacity="0.12"/>
<polyline points="50.0,45.0 78.8,49.3 107.5,61.3 136.2,20.0 165.0,39.5 193.8,53.7 222.5,63.4 251.2,72.1 280.0,80.8 308.8,100.4 337.5,110.1 366.2,119.9 395.0,130.8 423.8,138.4 452.5,143.8 481.2,160.1 510.0,162.3 538.8,172.0 567.5,178.6 596.2,199.2 625.0,219.8 653.8,231.8 682.5,240.5 711.2,251.3 740.0,260.0" fill="none" stroke="#2563eb" stroke-width="2"/>
<circle cx="50.0" cy="45.0" r="3" fill="#2563eb"/><circle cx="78.8" cy="49.3" r="3" fill="#2563eb"/><circle cx="107.5" cy="61.3" r="3" fill="#2563eb"/><circle cx="136.2" cy="20.0" r="3" fill="#2563eb"/><circle cx="165.0" cy="39.5" r="3" fill="#2563eb"/><circle cx="193.8" cy="53.7" r="3" fill="#2563eb"/><circle cx="222.5" cy="63.4" r="3" fill="#2563eb"/><circle cx="251.2" cy="72.1" r="3" fill="#2563eb"/><circle cx="280.0" cy="80.8" r="3" fill="#2563eb"/><circle cx="308.8" cy="100.4" r="3" fill="#2563eb"/><circle cx="337.5" cy="110.1" r="3" fill="#2563eb"/><circle cx="366.2" cy="119.9" r="3" fill="#2563eb"/><circle cx="395.0" cy="130.8" r="3" fill="#2563eb"/><circle cx="423.8" cy="138.4" r="3" fill="#2563eb"/><circle cx="452.5" cy="143.8" r="3" fill="#2563eb"/><circle cx="481.2" cy="160.1" r="3" fill="#2563eb"/><circle cx="510.0" cy="162.3" r="3" fill="#2563eb"/><circle cx="538.8" cy="172.0" r="3" fill="#2563eb"/><circle cx="567.5" cy="178.6" r="3" fill="#2563eb"/><circle cx="596.2" cy="199.2" r="3" fill="#2563eb"/><circle cx="625.0" cy="219.8" r="3" fill="#2563eb"/><circle cx="653.8" cy="231.8" r="3" fill="#2563eb"/><circle cx="682.5" cy="240.5" r="3" fill="#2563eb"/><circle cx="711.2" cy="251.3" r="3" fill="#2563eb"/><circle cx="740.0" cy="260.0" r="3" fill="#2563eb"/>
<text x="5" y="24.0" font-size="11" fill="#2563eb">63.3GB</text>
<text x="5" y="264.0" font-size="11" fill="#2563eb">41.2GB</text>
<text x="50.0" y="275" font-size="10" fill="#555" text-anchor="middle">21:47</text><text x="136.2" y="275" font-size="10" fill="#555" text-anchor="middle">00:47</text><text x="222.5" y="275" font-size="10" fill="#555" text-anchor="middle">03:47</text><text x="308.8" y="275" font-size="10" fill="#555" text-anchor="middle">06:47</text><text x="395.0" y="275" font-size="10" fill="#555" text-anchor="middle">09:47</text><text x="481.2" y="275" font-size="10" fill="#555" text-anchor="middle">12:47</text><text x="567.5" y="275" font-size="10" fill="#555" text-anchor="middle">15:47</text><text x="653.8" y="275" font-size="10" fill="#555" text-anchor="middle">18:47</text><text x="740.0" y="275" font-size="10" fill="#555" text-anchor="middle">21:47</text>
</svg>