<svg xmlns="http://www.w3.org/2000/svg" width="760" height="300" viewBox="0 0 760 300" font-family="sans-serif">
<rect width="760" height="300" fill="#ffffff"/>
<text x="50" y="16" font-size="13" fill="#111">空き容量の推移（直近24時間・disk_guardian.log実測）</text>
<rect x="50.0" y="20" width="28.8" height="240" fill="#ef4444" opacity="0.12"/><rect x="107.5" y="20" width="28.8" height="240" fill="#ef4444" opacity="0.12"/><rect x="136.2" y="20" width="28.8" height="240" fill="#ef4444" opacity="0.12"/>
<polyline points="50.0,20.0 78.8,44.3 107.5,44.3 136.2,59.5 165.0,86.8 193.8,97.5 222.5,109.6 251.2,120.3 280.0,133.9 308.8,143.0 337.5,149.1 366.2,156.7 395.0,165.8 423.8,174.9 452.5,181.0 481.2,190.1 510.0,196.2 538.8,208.4 567.5,211.4 596.2,220.5 625.0,226.6 653.8,235.7 682.5,238.7 711.2,247.8 740.0,260.0" fill="none" stroke="#2563eb" stroke-width="2"/>
<circle cx="50.0" cy="20.0" r="3" fill="#2563eb"/><circle cx="78.8" cy="44.3" r="3" fill="#2563eb"/><circle cx="107.5" cy="44.3" r="3" fill="#2563eb"/><circle cx="136.2" cy="59.5" r="3" fill="#2563eb"/><circle cx="165.0" cy="86.8" r="3" fill="#2563eb"/><circle cx="193.8" cy="97.5" r="3" fill="#2563eb"/><circle cx="222.5" cy="109.6" r="3" fill="#2563eb"/><circle cx="251.2" cy="120.3" r="3" fill="#2563eb"/><circle cx="280.0" cy="133.9" r="3" fill="#2563eb"/><circle cx="308.8" cy="143.0" r="3" fill="#2563eb"/><circle cx="337.5" cy="149.1" r="3" fill="#2563eb"/><circle cx="366.2" cy="156.7" r="3" fill="#2563eb"/><circle cx="395.0" cy="165.8" r="3" fill="#2563eb"/><circle cx="423.8" cy="174.9" r="3" fill="#2563eb"/><circle cx="452.5" cy="181.0" r="3" fill="#2563eb"/><circle cx="481.2" cy="190.1" r="3" fill="#2563eb"/><circle cx="510.0" cy="196.2" r="3" fill="#2563eb"/><circle cx="538.8" cy="208.4" r="3" fill="#2563eb"/><circle cx="567.5" cy="211.4" r="3" fill="#2563eb"/><circle cx="596.2" cy="220.5" r="3" fill="#2563eb"/><circle cx="625.0" cy="226.6" r="3" fill="#2563eb"/><circle cx="653.8" cy="235.7" r="3" fill="#2563eb"/><circle cx="682.5" cy="238.7" r="3" fill="#2563eb"/><circle cx="711.2" cy="247.8" r="3" fill="#2563eb"/><circle cx="740.0" cy="260.0" r="3" fill="#2563eb"/>
<text x="5" y="24.0" font-size="11" fill="#2563eb">69.1GB</text>
<text x="5" y="264.0" font-size="11" fill="#2563eb">53.3GB</text>
<text x="50.0" y="275" font-size="10" fill="#555" text-anchor="middle">02:05</text><text x="136.2" y="275" font-size="10" fill="#555" text-anchor="middle">05:05</text><text x="222.5" y="275" font-size="10" fill="#555" text-anchor="middle">08:05</text><text x="308.8" y="275" font-size="10" fill="#555" text-anchor="middle">11:05</text><text x="395.0" y="275" font-size="10" fill="#555" text-anchor="middle">14:05</text><text x="481.2" y="275" font-size="10" fill="#555" text-anchor="middle">17:05</text><text x="567.5" y="275" font-size="10" fill="#555" text-anchor="middle">20:05</text><text x="653.8" y="275" font-size="10" fill="#555" text-anchor="middle">23:05</text><text x="740.0" y="275" font-size="10" fill="#555" text-anchor="middle">02:05</text>
</svg>