<svg xmlns="http://www.w3.org/2000/svg" width="760" height="300" viewBox="0 0 760 300" font-family="sans-serif">
<rect width="760" height="300" fill="#ffffff"/>
<text x="50" y="16" font-size="13" fill="#111">空き容量の推移（直近24時間・disk_guardian.log実測）</text>
<rect x="136.2" y="20" width="28.8" height="240" fill="#ef4444" opacity="0.12"/><rect x="165.0" y="20" width="28.8" height="240" fill="#ef4444" opacity="0.12"/><rect x="193.8" y="20" width="28.8" height="240" fill="#ef4444" opacity="0.12"/><rect x="222.5" y="20" width="28.8" height="240" fill="#ef4444" opacity="0.12"/><rect x="280.0" y="20" width="28.8" height="240" fill="#ef4444" opacity="0.12"/><rect x="395.0" y="20" width="28.8" height="240" fill="#ef4444" opacity="0.12"/><rect x="481.2" y="20" width="28.8" height="240" fill="#ef4444" opacity="0.12"/><rect x="510.0" y="20" width="28.8" height="240" fill="#ef4444" opacity="0.12"/><rect x="596.2" y="20" width="28.8" height="240" fill="#ef4444" opacity="0.12"/>
<polyline points="50.0,45.9 78.8,50.3 107.5,67.6 136.2,76.2 165.0,100.0 193.8,123.8 222.5,158.4 251.2,180.0 280.0,199.5 308.8,242.7 337.5,260.0 366.2,61.1 395.0,39.5 423.8,71.9 452.5,76.2 481.2,93.5 510.0,115.1 538.8,138.9 567.5,147.6 596.2,151.9 625.0,195.1 653.8,201.6 682.5,195.1 711.2,20.0 740.0,28.6" fill="none" stroke="#2563eb" stroke-width="2"/>
<circle cx="50.0" cy="45.9" r="3" fill="#2563eb"/><circle cx="78.8" cy="50.3" r="3" fill="#2563eb"/><circle cx="107.5" cy="67.6" r="3" fill="#2563eb"/><circle cx="136.2" cy="76.2" r="3" fill="#2563eb"/><circle cx="165.0" cy="100.0" r="3" fill="#2563eb"/><circle cx="193.8" cy="123.8" r="3" fill="#2563eb"/><circle cx="222.5" cy="158.4" r="3" fill="#2563eb"/><circle cx="251.2" cy="180.0" r="3" fill="#2563eb"/><circle cx="280.0" cy="199.5" r="3" fill="#2563eb"/><circle cx="308.8" cy="242.7" r="3" fill="#2563eb"/><circle cx="337.5" cy="260.0" r="3" fill="#2563eb"/><circle cx="366.2" cy="61.1" r="3" fill="#2563eb"/><circle cx="395.0" cy="39.5" r="3" fill="#2563eb"/><circle cx="423.8" cy="71.9" r="3" fill="#2563eb"/><circle cx="452.5" cy="76.2" r="3" fill="#2563eb"/><circle cx="481.2" cy="93.5" r="3" fill="#2563eb"/><circle cx="510.0" cy="115.1" r="3" fill="#2563eb"/><circle cx="538.8" cy="138.9" r="3" fill="#2563eb"/><circle cx="567.5" cy="147.6" r="3" fill="#2563eb"/><circle cx="596.2" cy="151.9" r="3" fill="#2563eb"/><circle cx="625.0" cy="195.1" r="3" fill="#2563eb"/><circle cx="653.8" cy="201.6" r="3" fill="#2563eb"/><circle cx="682.5" cy="195.1" r="3" fill="#2563eb"/><circle cx="711.2" cy="20.0" r="3" fill="#2563eb"/><circle cx="740.0" cy="28.6" r="3" fill="#2563eb"/>
<text x="5" y="24.0" font-size="11" fill="#2563eb">90.7GB</text>
<text x="5" y="264.0" font-size="11" fill="#2563eb">79.6GB</text>
<text x="50.0" y="275" font-size="10" fill="#555" text-anchor="middle">13:50</text><text x="136.2" y="275" font-size="10" fill="#555" text-anchor="middle">16:50</text><text x="222.5" y="275" font-size="10" fill="#555" text-anchor="middle">19:50</text><text x="308.8" y="275" font-size="10" fill="#555" text-anchor="middle">22:50</text><text x="395.0" y="275" font-size="10" fill="#555" text-anchor="middle">01:50</text><text x="481.2" y="275" font-size="10" fill="#555" text-anchor="middle">04:50</text><text x="567.5" y="275" font-size="10" fill="#555" text-anchor="middle">07:50</text><text x="653.8" y="275" font-size="10" fill="#555" text-anchor="middle">10:50</text><text x="740.0" y="275" font-size="10" fill="#555" text-anchor="middle">13:50</text>
</svg>