<svg xmlns="http://www.w3.org/2000/svg" width="760" height="300" viewBox="0 0 760 300" font-family="sans-serif">
<rect width="760" height="300" fill="#ffffff"/>
<text x="50" y="16" font-size="13" fill="#111">空き容量の推移（直近24時間・disk_guardian.log実測）</text>
<rect x="50.0" y="20" width="28.8" height="240" fill="#ef4444" opacity="0.12"/><rect x="78.8" y="20" width="28.8" height="240" fill="#ef4444" opacity="0.12"/><rect x="222.5" y="20" width="28.8" height="240" fill="#ef4444" opacity="0.12"/><rect x="251.2" y="20" width="28.8" height="240" fill="#ef4444" opacity="0.12"/><rect x="280.0" y="20" width="28.8" height="240" fill="#ef4444" opacity="0.12"/><rect x="308.8" y="20" width="28.8" height="240" fill="#ef4444" opacity="0.12"/><rect x="366.2" y="20" width="28.8" height="240" fill="#ef4444" opacity="0.12"/><rect x="395.0" y="20" width="28.8" height="240" fill="#ef4444" opacity="0.12"/><rect x="423.8" y="20" width="28.8" height="240" fill="#ef4444" opacity="0.12"/><rect x="452.5" y="20" width="28.8" height="240" fill="#ef4444" opacity="0.12"/><rect x="481.2" y="20" width="28.8" height="240" fill="#ef4444" opacity="0.12"/><rect x="596.2" y="20" width="28.8" height="240" fill="#ef4444" opacity="0.12"/><rect x="625.0" y="20" width="28.8" height="240" fill="#ef4444" opacity="0.12"/><rect x="653.8" y="20" width="28.8" height="240" fill="#ef4444" opacity="0.12"/><rect x="682.5" y="20" width="28.8" height="240" fill="#ef4444" opacity="0.12"/><rect x="711.2" y="20" width="28.8" height="240" fill="#ef4444" opacity="0.12"/>
<polyline points="50.0,229.0 78.8,244.1 107.5,260.0 136.2,68.7 165.0,47.5 193.8,20.0 222.5,20.0 251.2,33.3 280.0,43.9 308.8,55.4 337.5,64.3 366.2,72.3 395.0,83.8 423.8,93.5 452.5,106.8 481.2,117.4 510.0,135.1 538.8,114.8 567.5,109.4 596.2,112.1 625.0,121.0 653.8,135.1 682.5,149.3 711.2,168.8 740.0,186.5" fill="none" stroke="#2563eb" stroke-width="2"/>
<circle cx="50.0" cy="229.0" r="3" fill="#2563eb"/><circle cx="78.8" cy="244.1" r="3" fill="#2563eb"/><circle cx="107.5" cy="260.0" r="3" fill="#2563eb"/><circle cx="136.2" cy="68.7" r="3" fill="#2563eb"/><circle cx="165.0" cy="47.5" r="3" fill="#2563eb"/><circle cx="193.8" cy="20.0" r="3" fill="#2563eb"/><circle cx="222.5" cy="20.0" r="3" fill="#2563eb"/><circle cx="251.2" cy="33.3" r="3" fill="#2563eb"/><circle cx="280.0" cy="43.9" r="3" fill="#2563eb"/><circle cx="308.8" cy="55.4" r="3" fill="#2563eb"/><circle cx="337.5" cy="64.3" r="3" fill="#2563eb"/><circle cx="366.2" cy="72.3" r="3" fill="#2563eb"/><circle cx="395.0" cy="83.8" r="3" fill="#2563eb"/><circle cx="423.8" cy="93.5" r="3" fill="#2563eb"/><circle cx="452.5" cy="106.8" r="3" fill="#2563eb"/><circle cx="481.2" cy="117.4" r="3" fill="#2563eb"/><circle cx="510.0" cy="135.1" r="3" fill="#2563eb"/><circle cx="538.8" cy="114.8" r="3" fill="#2563eb"/><circle cx="567.5" cy="109.4" r="3" fill="#2563eb"/><circle cx="596.2" cy="112.1" r="3" fill="#2563eb"/><circle cx="625.0" cy="121.0" r="3" fill="#2563eb"/><circle cx="653.8" cy="135.1" r="3" fill="#2563eb"/><circle cx="682.5" cy="149.3" r="3" fill="#2563eb"/><circle cx="711.2" cy="168.8" r="3" fill="#2563eb"/><circle cx="740.0" cy="186.5" r="3" fill="#2563eb"/>
<text x="5" y="24.0" font-size="11" fill="#2563eb">113.8GB</text>
<text x="5" y="264.0" font-size="11" fill="#2563eb">86.7GB</text>
<text x="50.0" y="275" font-size="10" fill="#555" text-anchor="middle">09:42</text><text x="136.2" y="275" font-size="10" fill="#555" text-anchor="middle">12:42</text><text x="222.5" y="275" font-size="10" fill="#555" text-anchor="middle">15:42</text><text x="308.8" y="275" font-size="10" fill="#555" text-anchor="middle">18:42</text><text x="395.0" y="275" font-size="10" fill="#555" text-anchor="middle">21:42</text><text x="481.2" y="275" font-size="10" fill="#555" text-anchor="middle">00:42</text><text x="567.5" y="275" font-size="10" fill="#555" text-anchor="middle">03:42</text><text x="653.8" y="275" font-size="10" fill="#555" text-anchor="middle">06:42</text><text x="740.0" y="275" font-size="10" fill="#555" text-anchor="middle">09:42</text>
</svg>