<svg xmlns="http://www.w3.org/2000/svg" width="760" height="300" viewBox="0 0 760 300" font-family="sans-serif">
<rect width="760" height="300" fill="#ffffff"/>
<text x="50" y="16" font-size="13" fill="#111">空き容量の推移（直近24時間・disk_guardian.log実測）</text>
<rect x="112.7" y="20" width="31.4" height="240" fill="#ef4444" opacity="0.12"/><rect x="175.5" y="20" width="31.4" height="240" fill="#ef4444" opacity="0.12"/><rect x="206.8" y="20" width="31.4" height="240" fill="#ef4444" opacity="0.12"/><rect x="238.2" y="20" width="31.4" height="240" fill="#ef4444" opacity="0.12"/><rect x="269.5" y="20" width="31.4" height="240" fill="#ef4444" opacity="0.12"/><rect x="300.9" y="20" width="31.4" height="240" fill="#ef4444" opacity="0.12"/><rect x="332.3" y="20" width="31.4" height="240" fill="#ef4444" opacity="0.12"/><rect x="395.0" y="20" width="31.4" height="240" fill="#ef4444" opacity="0.12"/><rect x="708.6" y="20" width="31.4" height="240" fill="#ef4444" opacity="0.12"/>
<polyline points="50.0,63.3 81.4,54.0 112.7,20.0 144.1,54.0 175.5,59.8 206.8,73.9 238.2,94.9 269.5,118.3 300.9,132.4 332.3,147.6 363.6,176.9 395.0,157.0 426.4,171.0 457.7,181.6 489.1,190.9 520.5,201.5 551.8,212.0 583.2,217.9 614.5,221.4 645.9,231.9 677.3,237.8 708.6,244.8 740.0,260.0" fill="none" stroke="#2563eb" stroke-width="2"/>
<circle cx="50.0" cy="63.3" r="3" fill="#2563eb"/><circle cx="81.4" cy="54.0" r="3" fill="#2563eb"/><circle cx="112.7" cy="20.0" r="3" fill="#2563eb"/><circle cx="144.1" cy="54.0" r="3" fill="#2563eb"/><circle cx="175.5" cy="59.8" r="3" fill="#2563eb"/><circle cx="206.8" cy="73.9" r="3" fill="#2563eb"/><circle cx="238.2" cy="94.9" r="3" fill="#2563eb"/><circle cx="269.5" cy="118.3" r="3" fill="#2563eb"/><circle cx="300.9" cy="132.4" r="3" fill="#2563eb"/><circle cx="332.3" cy="147.6" r="3" fill="#2563eb"/><circle cx="363.6" cy="176.9" r="3" fill="#2563eb"/><circle cx="395.0" cy="157.0" r="3" fill="#2563eb"/><circle cx="426.4" cy="171.0" r="3" fill="#2563eb"/><circle cx="457.7" cy="181.6" r="3" fill="#2563eb"/><circle cx="489.1" cy="190.9" r="3" fill="#2563eb"/><circle cx="520.5" cy="201.5" r="3" fill="#2563eb"/><circle cx="551.8" cy="212.0" r="3" fill="#2563eb"/><circle cx="583.2" cy="217.9" r="3" fill="#2563eb"/><circle cx="614.5" cy="221.4" r="3" fill="#2563eb"/><circle cx="645.9" cy="231.9" r="3" fill="#2563eb"/><circle cx="677.3" cy="237.8" r="3" fill="#2563eb"/><circle cx="708.6" cy="244.8" r="3" fill="#2563eb"/><circle cx="740.0" cy="260.0" r="3" fill="#2563eb"/>
<text x="5" y="24.0" font-size="11" fill="#2563eb">129.0GB</text>
<text x="5" y="264.0" font-size="11" fill="#2563eb">108.5GB</text>
<text x="50.0" y="275" font-size="10" fill="#555" text-anchor="middle">00:49</text><text x="144.1" y="275" font-size="10" fill="#555" text-anchor="middle">03:49</text><text x="238.2" y="275" font-size="10" fill="#555" text-anchor="middle">06:49</text><text x="332.3" y="275" font-size="10" fill="#555" text-anchor="middle">09:49</text><text x="426.4" y="275" font-size="10" fill="#555" text-anchor="middle">12:49</text><text x="520.5" y="275" font-size="10" fill="#555" text-anchor="middle">15:49</text><text x="614.5" y="275" font-size="10" fill="#555" text-anchor="middle">18:49</text><text x="708.6" y="275" font-size="10" fill="#555" text-anchor="middle">21:49</text><text x="740.0" y="275" font-size="10" fill="#555" text-anchor="middle">22:49</text>
</svg>