<svg xmlns="http://www.w3.org/2000/svg" width="760" height="300" viewBox="0 0 760 300" font-family="sans-serif">
<rect width="760" height="300" fill="#ffffff"/>
<text x="50" y="16" font-size="13" fill="#111">空き容量の推移（直近24時間・disk_guardian.log実測）</text>
<rect x="78.8" y="20" width="28.8" height="240" fill="#ef4444" opacity="0.12"/><rect x="193.8" y="20" width="28.8" height="240" fill="#ef4444" opacity="0.12"/><rect x="423.8" y="20" width="28.8" height="240" fill="#ef4444" opacity="0.12"/><rect x="481.2" y="20" width="28.8" height="240" fill="#ef4444" opacity="0.12"/><rect x="510.0" y="20" width="28.8" height="240" fill="#ef4444" opacity="0.12"/>
<polyline points="50.0,20.0 78.8,23.7 107.5,38.4 136.2,49.4 165.0,58.0 193.8,66.5 222.5,78.8 251.2,88.6 280.0,99.6 308.8,108.2 337.5,119.2 366.2,129.0 395.0,138.8 423.8,143.7 452.5,170.6 481.2,169.4 510.0,181.6 538.8,203.7 567.5,212.2 596.2,220.8 625.0,230.6 653.8,241.6 682.5,249.0 711.2,253.9 740.0,260.0" fill="none" stroke="#2563eb" stroke-width="2"/>
<circle cx="50.0" cy="20.0" r="3" fill="#2563eb"/><circle cx="78.8" cy="23.7" r="3" fill="#2563eb"/><circle cx="107.5" cy="38.4" r="3" fill="#2563eb"/><circle cx="136.2" cy="49.4" r="3" fill="#2563eb"/><circle cx="165.0" cy="58.0" r="3" fill="#2563eb"/><circle cx="193.8" cy="66.5" r="3" fill="#2563eb"/><circle cx="222.5" cy="78.8" r="3" fill="#2563eb"/><circle cx="251.2" cy="88.6" r="3" fill="#2563eb"/><circle cx="280.0" cy="99.6" r="3" fill="#2563eb"/><circle cx="308.8" cy="108.2" r="3" fill="#2563eb"/><circle cx="337.5" cy="119.2" r="3" fill="#2563eb"/><circle cx="366.2" cy="129.0" r="3" fill="#2563eb"/><circle cx="395.0" cy="138.8" r="3" fill="#2563eb"/><circle cx="423.8" cy="143.7" r="3" fill="#2563eb"/><circle cx="452.5" cy="170.6" r="3" fill="#2563eb"/><circle cx="481.2" cy="169.4" r="3" fill="#2563eb"/><circle cx="510.0" cy="181.6" r="3" fill="#2563eb"/><circle cx="538.8" cy="203.7" r="3" fill="#2563eb"/><circle cx="567.5" cy="212.2" r="3" fill="#2563eb"/><circle cx="596.2" cy="220.8" r="3" fill="#2563eb"/><circle cx="625.0" cy="230.6" r="3" fill="#2563eb"/><circle cx="653.8" cy="241.6" r="3" fill="#2563eb"/><circle cx="682.5" cy="249.0" r="3" fill="#2563eb"/><circle cx="711.2" cy="253.9" r="3" fill="#2563eb"/><circle cx="740.0" cy="260.0" r="3" fill="#2563eb"/>
<text x="5" y="24.0" font-size="11" fill="#2563eb">79.7GB</text>
<text x="5" y="264.0" font-size="11" fill="#2563eb">60.1GB</text>
<text x="50.0" y="275" font-size="10" fill="#555" text-anchor="middle">13:00</text><text x="136.2" y="275" font-size="10" fill="#555" text-anchor="middle">16:00</text><text x="222.5" y="275" font-size="10" fill="#555" text-anchor="middle">19:00</text><text x="308.8" y="275" font-size="10" fill="#555" text-anchor="middle">22:00</text><text x="395.0" y="275" font-size="10" fill="#555" text-anchor="middle">01:00</text><text x="481.2" y="275" font-size="10" fill="#555" text-anchor="middle">04:00</text><text x="567.5" y="275" font-size="10" fill="#555" text-anchor="middle">07:00</text><text x="653.8" y="275" font-size="10" fill="#555" text-anchor="middle">10:00</text><text x="740.0" y="275" font-size="10" fill="#555" text-anchor="middle">13:00</text>
</svg>