<svg xmlns="http://www.w3.org/2000/svg" width="760" height="300" viewBox="0 0 760 300" font-family="sans-serif">
<rect width="760" height="300" fill="#ffffff"/>
<text x="50" y="16" font-size="13" fill="#111">空き容量の推移（直近24時間・disk_guardian.log実測）</text>
<rect x="136.2" y="20" width="28.8" height="240" fill="#ef4444" opacity="0.12"/><rect x="222.5" y="20" width="28.8" height="240" fill="#ef4444" opacity="0.12"/><rect x="423.8" y="20" width="28.8" height="240" fill="#ef4444" opacity="0.12"/><rect x="452.5" y="20" width="28.8" height="240" fill="#ef4444" opacity="0.12"/><rect x="481.2" y="20" width="28.8" height="240" fill="#ef4444" opacity="0.12"/><rect x="510.0" y="20" width="28.8" height="240" fill="#ef4444" opacity="0.12"/><rect x="567.5" y="20" width="28.8" height="240" fill="#ef4444" opacity="0.12"/><rect x="596.2" y="20" width="28.8" height="240" fill="#ef4444" opacity="0.12"/><rect x="682.5" y="20" width="28.8" height="240" fill="#ef4444" opacity="0.12"/>
<polyline points="50.0,170.2 78.8,184.9 107.5,198.0 136.2,209.4 165.0,225.7 193.8,232.2 222.5,240.4 251.2,260.0 280.0,26.5 308.8,28.2 337.5,36.3 366.2,41.2 395.0,51.0 423.8,62.4 452.5,78.8 481.2,98.4 510.0,122.9 538.8,140.8 567.5,153.9 596.2,183.3 625.0,204.5 653.8,20.0 682.5,31.4 711.2,55.9 740.0,62.4" fill="none" stroke="#2563eb" stroke-width="2"/>
<circle cx="50.0" cy="170.2" r="3" fill="#2563eb"/><circle cx="78.8" cy="184.9" r="3" fill="#2563eb"/><circle cx="107.5" cy="198.0" r="3" fill="#2563eb"/><circle cx="136.2" cy="209.4" r="3" fill="#2563eb"/><circle cx="165.0" cy="225.7" r="3" fill="#2563eb"/><circle cx="193.8" cy="232.2" r="3" fill="#2563eb"/><circle cx="222.5" cy="240.4" r="3" fill="#2563eb"/><circle cx="251.2" cy="260.0" r="3" fill="#2563eb"/><circle cx="280.0" cy="26.5" r="3" fill="#2563eb"/><circle cx="308.8" cy="28.2" r="3" fill="#2563eb"/><circle cx="337.5" cy="36.3" r="3" fill="#2563eb"/><circle cx="366.2" cy="41.2" r="3" fill="#2563eb"/><circle cx="395.0" cy="51.0" r="3" fill="#2563eb"/><circle cx="423.8" cy="62.4" r="3" fill="#2563eb"/><circle cx="452.5" cy="78.8" r="3" fill="#2563eb"/><circle cx="481.2" cy="98.4" r="3" fill="#2563eb"/><circle cx="510.0" cy="122.9" r="3" fill="#2563eb"/><circle cx="538.8" cy="140.8" r="3" fill="#2563eb"/><circle cx="567.5" cy="153.9" r="3" fill="#2563eb"/><circle cx="596.2" cy="183.3" r="3" fill="#2563eb"/><circle cx="625.0" cy="204.5" r="3" fill="#2563eb"/><circle cx="653.8" cy="20.0" r="3" fill="#2563eb"/><circle cx="682.5" cy="31.4" r="3" fill="#2563eb"/><circle cx="711.2" cy="55.9" r="3" fill="#2563eb"/><circle cx="740.0" cy="62.4" r="3" fill="#2563eb"/>
<text x="5" y="24.0" font-size="11" fill="#2563eb">90.3GB</text>
<text x="5" y="264.0" font-size="11" fill="#2563eb">75.6GB</text>
<text x="50.0" y="275" font-size="10" fill="#555" text-anchor="middle">04:06</text><text x="136.2" y="275" font-size="10" fill="#555" text-anchor="middle">07:06</text><text x="222.5" y="275" font-size="10" fill="#555" text-anchor="middle">10:06</text><text x="308.8" y="275" font-size="10" fill="#555" text-anchor="middle">13:06</text><text x="395.0" y="275" font-size="10" fill="#555" text-anchor="middle">16:06</text><text x="481.2" y="275" font-size="10" fill="#555" text-anchor="middle">19:06</text><text x="567.5" y="275" font-size="10" fill="#555" text-anchor="middle">22:06</text><text x="653.8" y="275" font-size="10" fill="#555" text-anchor="middle">01:06</text><text x="740.0" y="275" font-size="10" fill="#555" text-anchor="middle">04:06</text>
</svg>