<svg xmlns="http://www.w3.org/2000/svg" width="760" height="300" viewBox="0 0 760 300" font-family="sans-serif">
<rect width="760" height="300" fill="#ffffff"/>
<text x="50" y="16" font-size="13" fill="#111">空き容量の推移（直近24時間・disk_guardian.log実測）</text>
<rect x="50.0" y="20" width="28.8" height="240" fill="#ef4444" opacity="0.12"/><rect x="78.8" y="20" width="28.8" height="240" fill="#ef4444" opacity="0.12"/><rect x="165.0" y="20" width="28.8" height="240" fill="#ef4444" opacity="0.12"/><rect x="193.8" y="20" width="28.8" height="240" fill="#ef4444" opacity="0.12"/><rect x="251.2" y="20" width="28.8" height="240" fill="#ef4444" opacity="0.12"/><rect x="308.8" y="20" width="28.8" height="240" fill="#ef4444" opacity="0.12"/><rect x="337.5" y="20" width="28.8" height="240" fill="#ef4444" opacity="0.12"/><rect x="366.2" y="20" width="28.8" height="240" fill="#ef4444" opacity="0.12"/><rect x="395.0" y="20" width="28.8" height="240" fill="#ef4444" opacity="0.12"/><rect x="538.8" y="20" width="28.8" height="240" fill="#ef4444" opacity="0.12"/><rect x="567.5" y="20" width="28.8" height="240" fill="#ef4444" opacity="0.12"/><rect x="596.2" y="20" width="28.8" height="240" fill="#ef4444" opacity="0.12"/><rect x="625.0" y="20" width="28.8" height="240" fill="#ef4444" opacity="0.12"/><rect x="682.5" y="20" width="28.8" height="240" fill="#ef4444" opacity="0.12"/><rect x="711.2" y="20" width="28.8" height="240" fill="#ef4444" opacity="0.12"/>
<polyline points="50.0,115.7 78.8,140.9 107.5,152.2 136.2,157.4 165.0,160.0 193.8,170.4 222.5,179.1 251.2,180.9 280.0,189.6 308.8,193.9 337.5,217.4 366.2,233.0 395.0,247.0 423.8,260.0 452.5,62.6 481.2,20.0 510.0,23.5 538.8,27.0 567.5,39.1 596.2,51.3 625.0,62.6 653.8,73.9 682.5,79.1 711.2,88.7 740.0,104.3" fill="none" stroke="#2563eb" stroke-width="2"/>
<circle cx="50.0" cy="115.7" r="3" fill="#2563eb"/><circle cx="78.8" cy="140.9" r="3" fill="#2563eb"/><circle cx="107.5" cy="152.2" r="3" fill="#2563eb"/><circle cx="136.2" cy="157.4" r="3" fill="#2563eb"/><circle cx="165.0" cy="160.0" r="3" fill="#2563eb"/><circle cx="193.8" cy="170.4" r="3" fill="#2563eb"/><circle cx="222.5" cy="179.1" r="3" fill="#2563eb"/><circle cx="251.2" cy="180.9" r="3" fill="#2563eb"/><circle cx="280.0" cy="189.6" r="3" fill="#2563eb"/><circle cx="308.8" cy="193.9" r="3" fill="#2563eb"/><circle cx="337.5" cy="217.4" r="3" fill="#2563eb"/><circle cx="366.2" cy="233.0" r="3" fill="#2563eb"/><circle cx="395.0" cy="247.0" r="3" fill="#2563eb"/><circle cx="423.8" cy="260.0" r="3" fill="#2563eb"/><circle cx="452.5" cy="62.6" r="3" fill="#2563eb"/><circle cx="481.2" cy="20.0" r="3" fill="#2563eb"/><circle cx="510.0" cy="23.5" r="3" fill="#2563eb"/><circle cx="538.8" cy="27.0" r="3" fill="#2563eb"/><circle cx="567.5" cy="39.1" r="3" fill="#2563eb"/><circle cx="596.2" cy="51.3" r="3" fill="#2563eb"/><circle cx="625.0" cy="62.6" r="3" fill="#2563eb"/><circle cx="653.8" cy="73.9" r="3" fill="#2563eb"/><circle cx="682.5" cy="79.1" r="3" fill="#2563eb"/><circle cx="711.2" cy="88.7" r="3" fill="#2563eb"/><circle cx="740.0" cy="104.3" r="3" fill="#2563eb"/>
<text x="5" y="24.0" font-size="11" fill="#2563eb">114.2GB</text>
<text x="5" y="264.0" font-size="11" fill="#2563eb">86.6GB</text>
<text x="50.0" y="275" font-size="10" fill="#555" text-anchor="middle">23:09</text><text x="136.2" y="275" font-size="10" fill="#555" text-anchor="middle">02:09</text><text x="222.5" y="275" font-size="10" fill="#555" text-anchor="middle">05:09</text><text x="308.8" y="275" font-size="10" fill="#555" text-anchor="middle">08:09</text><text x="395.0" y="275" font-size="10" fill="#555" text-anchor="middle">11:09</text><text x="481.2" y="275" font-size="10" fill="#555" text-anchor="middle">14:09</text><text x="567.5" y="275" font-size="10" fill="#555" text-anchor="middle">17:09</text><text x="653.8" y="275" font-size="10" fill="#555" text-anchor="middle">20:09</text><text x="740.0" y="275" font-size="10" fill="#555" text-anchor="middle">23:09</text>
</svg>