<svg xmlns="http://www.w3.org/2000/svg" width="760" height="300" viewBox="0 0 760 300" font-family="sans-serif">
<rect width="760" height="300" fill="#ffffff"/>
<text x="50" y="16" font-size="13" fill="#111">空き容量の推移（直近24時間・disk_guardian.log実測）</text>
<rect x="136.2" y="20" width="28.8" height="240" fill="#ef4444" opacity="0.12"/><rect x="193.8" y="20" width="28.8" height="240" fill="#ef4444" opacity="0.12"/><rect x="337.5" y="20" width="28.8" height="240" fill="#ef4444" opacity="0.12"/><rect x="423.8" y="20" width="28.8" height="240" fill="#ef4444" opacity="0.12"/><rect x="711.2" y="20" width="28.8" height="240" fill="#ef4444" opacity="0.12"/>
<polyline points="50.0,191.9 78.8,206.5 107.5,219.5 136.2,148.1 165.0,164.3 193.8,170.8 222.5,209.7 251.2,190.3 280.0,204.9 308.8,214.6 337.5,162.7 366.2,178.9 395.0,191.9 423.8,203.2 452.5,219.5 481.2,225.9 510.0,230.8 538.8,245.4 567.5,260.0 596.2,20.0 625.0,28.1 653.8,36.2 682.5,45.9 711.2,57.3 740.0,73.5" fill="none" stroke="#2563eb" stroke-width="2"/>
<circle cx="50.0" cy="191.9" r="3" fill="#2563eb"/><circle cx="78.8" cy="206.5" r="3" fill="#2563eb"/><circle cx="107.5" cy="219.5" r="3" fill="#2563eb"/><circle cx="136.2" cy="148.1" r="3" fill="#2563eb"/><circle cx="165.0" cy="164.3" r="3" fill="#2563eb"/><circle cx="193.8" cy="170.8" r="3" fill="#2563eb"/><circle cx="222.5" cy="209.7" r="3" fill="#2563eb"/><circle cx="251.2" cy="190.3" r="3" fill="#2563eb"/><circle cx="280.0" cy="204.9" r="3" fill="#2563eb"/><circle cx="308.8" cy="214.6" r="3" fill="#2563eb"/><circle cx="337.5" cy="162.7" r="3" fill="#2563eb"/><circle cx="366.2" cy="178.9" r="3" fill="#2563eb"/><circle cx="395.0" cy="191.9" r="3" fill="#2563eb"/><circle cx="423.8" cy="203.2" r="3" fill="#2563eb"/><circle cx="452.5" cy="219.5" r="3" fill="#2563eb"/><circle cx="481.2" cy="225.9" r="3" fill="#2563eb"/><circle cx="510.0" cy="230.8" r="3" fill="#2563eb"/><circle cx="538.8" cy="245.4" r="3" fill="#2563eb"/><circle cx="567.5" cy="260.0" r="3" fill="#2563eb"/><circle cx="596.2" cy="20.0" r="3" fill="#2563eb"/><circle cx="625.0" cy="28.1" r="3" fill="#2563eb"/><circle cx="653.8" cy="36.2" r="3" fill="#2563eb"/><circle cx="682.5" cy="45.9" r="3" fill="#2563eb"/><circle cx="711.2" cy="57.3" r="3" fill="#2563eb"/><circle cx="740.0" cy="73.5" r="3" fill="#2563eb"/>
<text x="5" y="24.0" font-size="11" fill="#2563eb">90.0GB</text>
<text x="5" y="264.0" font-size="11" fill="#2563eb">75.2GB</text>
<text x="50.0" y="275" font-size="10" fill="#555" text-anchor="middle">17:58</text><text x="136.2" y="275" font-size="10" fill="#555" text-anchor="middle">20:58</text><text x="222.5" y="275" font-size="10" fill="#555" text-anchor="middle">23:58</text><text x="308.8" y="275" font-size="10" fill="#555" text-anchor="middle">02:58</text><text x="395.0" y="275" font-size="10" fill="#555" text-anchor="middle">05:58</text><text x="481.2" y="275" font-size="10" fill="#555" text-anchor="middle">08:58</text><text x="567.5" y="275" font-size="10" fill="#555" text-anchor="middle">11:58</text><text x="653.8" y="275" font-size="10" fill="#555" text-anchor="middle">14:58</text><text x="740.0" y="275" font-size="10" fill="#555" text-anchor="middle">17:58</text>
</svg>