<svg xmlns="http://www.w3.org/2000/svg" width="760" height="300" viewBox="0 0 760 300" font-family="sans-serif">
<rect width="760" height="300" fill="#ffffff"/>
<text x="50" y="16" font-size="13" fill="#111">空き容量の推移（直近24時間・disk_guardian.log実測）</text>
<rect x="112.7" y="20" width="31.4" height="240" fill="#ef4444" opacity="0.12"/><rect x="175.5" y="20" width="31.4" height="240" fill="#ef4444" opacity="0.12"/><rect x="206.8" y="20" width="31.4" height="240" fill="#ef4444" opacity="0.12"/><rect x="238.2" y="20" width="31.4" height="240" fill="#ef4444" opacity="0.12"/><rect x="269.5" y="20" width="31.4" height="240" fill="#ef4444" opacity="0.12"/><rect x="332.3" y="20" width="31.4" height="240" fill="#ef4444" opacity="0.12"/><rect x="489.1" y="20" width="31.4" height="240" fill="#ef4444" opacity="0.12"/>
<polyline points="50.0,208.2 81.4,52.9 112.7,20.0 144.1,51.8 175.5,61.2 206.8,76.5 238.2,90.6 269.5,122.4 300.9,137.6 332.3,145.9 363.6,177.6 395.0,163.5 426.4,174.1 457.7,182.4 489.1,191.8 520.5,204.7 551.8,211.8 583.2,220.0 614.5,223.5 645.9,234.1 677.3,241.2 708.6,249.4 740.0,260.0" fill="none" stroke="#2563eb" stroke-width="2"/>
<circle cx="50.0" cy="208.2" r="3" fill="#2563eb"/><circle cx="81.4" cy="52.9" r="3" fill="#2563eb"/><circle cx="112.7" cy="20.0" r="3" fill="#2563eb"/><circle cx="144.1" cy="51.8" r="3" fill="#2563eb"/><circle cx="175.5" cy="61.2" r="3" fill="#2563eb"/><circle cx="206.8" cy="76.5" r="3" fill="#2563eb"/><circle cx="238.2" cy="90.6" r="3" fill="#2563eb"/><circle cx="269.5" cy="122.4" r="3" fill="#2563eb"/><circle cx="300.9" cy="137.6" r="3" fill="#2563eb"/><circle cx="332.3" cy="145.9" r="3" fill="#2563eb"/><circle cx="363.6" cy="177.6" r="3" fill="#2563eb"/><circle cx="395.0" cy="163.5" r="3" fill="#2563eb"/><circle cx="426.4" cy="174.1" r="3" fill="#2563eb"/><circle cx="457.7" cy="182.4" r="3" fill="#2563eb"/><circle cx="489.1" cy="191.8" r="3" fill="#2563eb"/><circle cx="520.5" cy="204.7" r="3" fill="#2563eb"/><circle cx="551.8" cy="211.8" r="3" fill="#2563eb"/><circle cx="583.2" cy="220.0" r="3" fill="#2563eb"/><circle cx="614.5" cy="223.5" r="3" fill="#2563eb"/><circle cx="645.9" cy="234.1" r="3" fill="#2563eb"/><circle cx="677.3" cy="241.2" r="3" fill="#2563eb"/><circle cx="708.6" cy="249.4" r="3" fill="#2563eb"/><circle cx="740.0" cy="260.0" r="3" fill="#2563eb"/>
<text x="5" y="24.0" font-size="11" fill="#2563eb">129.3GB</text>
<text x="5" y="264.0" font-size="11" fill="#2563eb">108.9GB</text>
<text x="50.0" y="275" font-size="10" fill="#555" text-anchor="middle">00:33</text><text x="144.1" y="275" font-size="10" fill="#555" text-anchor="middle">03:33</text><text x="238.2" y="275" font-size="10" fill="#555" text-anchor="middle">06:33</text><text x="332.3" y="275" font-size="10" fill="#555" text-anchor="middle">09:33</text><text x="426.4" y="275" font-size="10" fill="#555" text-anchor="middle">12:33</text><text x="520.5" y="275" font-size="10" fill="#555" text-anchor="middle">15:33</text><text x="614.5" y="275" font-size="10" fill="#555" text-anchor="middle">18:33</text><text x="708.6" y="275" font-size="10" fill="#555" text-anchor="middle">21:33</text><text x="740.0" y="275" font-size="10" fill="#555" text-anchor="middle">22:33</text>
</svg>