<svg xmlns="http://www.w3.org/2000/svg" width="760" height="300" viewBox="0 0 760 300" font-family="sans-serif">
<rect width="760" height="300" fill="#ffffff"/>
<text x="50" y="16" font-size="13" fill="#111">空き容量の推移（直近24時間・disk_guardian.log実測）</text>
<rect x="78.8" y="20" width="28.8" height="240" fill="#ef4444" opacity="0.12"/><rect x="107.5" y="20" width="28.8" height="240" fill="#ef4444" opacity="0.12"/><rect x="136.2" y="20" width="28.8" height="240" fill="#ef4444" opacity="0.12"/><rect x="165.0" y="20" width="28.8" height="240" fill="#ef4444" opacity="0.12"/><rect x="222.5" y="20" width="28.8" height="240" fill="#ef4444" opacity="0.12"/><rect x="251.2" y="20" width="28.8" height="240" fill="#ef4444" opacity="0.12"/><rect x="395.0" y="20" width="28.8" height="240" fill="#ef4444" opacity="0.12"/><rect x="452.5" y="20" width="28.8" height="240" fill="#ef4444" opacity="0.12"/><rect x="481.2" y="20" width="28.8" height="240" fill="#ef4444" opacity="0.12"/><rect x="510.0" y="20" width="28.8" height="240" fill="#ef4444" opacity="0.12"/><rect x="538.8" y="20" width="28.8" height="240" fill="#ef4444" opacity="0.12"/><rect x="596.2" y="20" width="28.8" height="240" fill="#ef4444" opacity="0.12"/>
<polyline points="50.0,20.0 78.8,27.4 107.5,40.1 136.2,50.7 165.0,61.2 193.8,72.9 222.5,77.1 251.2,98.2 280.0,113.0 308.8,119.4 337.5,127.8 366.2,136.3 395.0,141.6 423.8,157.4 452.5,157.4 481.2,169.1 510.0,179.6 538.8,210.3 567.5,220.9 596.2,226.2 625.0,237.8 653.8,244.1 682.5,250.5 711.2,260.0 740.0,249.4" fill="none" stroke="#2563eb" stroke-width="2"/>
<circle cx="50.0" cy="20.0" r="3" fill="#2563eb"/><circle cx="78.8" cy="27.4" r="3" fill="#2563eb"/><circle cx="107.5" cy="40.1" r="3" fill="#2563eb"/><circle cx="136.2" cy="50.7" r="3" fill="#2563eb"/><circle cx="165.0" cy="61.2" r="3" fill="#2563eb"/><circle cx="193.8" cy="72.9" r="3" fill="#2563eb"/><circle cx="222.5" cy="77.1" r="3" fill="#2563eb"/><circle cx="251.2" cy="98.2" r="3" fill="#2563eb"/><circle cx="280.0" cy="113.0" r="3" fill="#2563eb"/><circle cx="308.8" cy="119.4" r="3" fill="#2563eb"/><circle cx="337.5" cy="127.8" r="3" fill="#2563eb"/><circle cx="366.2" cy="136.3" r="3" fill="#2563eb"/><circle cx="395.0" cy="141.6" r="3" fill="#2563eb"/><circle cx="423.8" cy="157.4" r="3" fill="#2563eb"/><circle cx="452.5" cy="157.4" r="3" fill="#2563eb"/><circle cx="481.2" cy="169.1" r="3" fill="#2563eb"/><circle cx="510.0" cy="179.6" r="3" fill="#2563eb"/><circle cx="538.8" cy="210.3" r="3" fill="#2563eb"/><circle cx="567.5" cy="220.9" r="3" fill="#2563eb"/><circle cx="596.2" cy="226.2" r="3" fill="#2563eb"/><circle cx="625.0" cy="237.8" r="3" fill="#2563eb"/><circle cx="653.8" cy="244.1" r="3" fill="#2563eb"/><circle cx="682.5" cy="250.5" r="3" fill="#2563eb"/><circle cx="711.2" cy="260.0" r="3" fill="#2563eb"/><circle cx="740.0" cy="249.4" r="3" fill="#2563eb"/>
<text x="5" y="24.0" font-size="11" fill="#2563eb">63.1GB</text>
<text x="5" y="264.0" font-size="11" fill="#2563eb">40.4GB</text>
<text x="50.0" y="275" font-size="10" fill="#555" text-anchor="middle">00:08</text><text x="136.2" y="275" font-size="10" fill="#555" text-anchor="middle">03:08</text><text x="222.5" y="275" font-size="10" fill="#555" text-anchor="middle">06:08</text><text x="308.8" y="275" font-size="10" fill="#555" text-anchor="middle">09:08</text><text x="395.0" y="275" font-size="10" fill="#555" text-anchor="middle">12:08</text><text x="481.2" y="275" font-size="10" fill="#555" text-anchor="middle">15:08</text><text x="567.5" y="275" font-size="10" fill="#555" text-anchor="middle">18:08</text><text x="653.8" y="275" font-size="10" fill="#555" text-anchor="middle">21:08</text><text x="740.0" y="275" font-size="10" fill="#555" text-anchor="middle">00:08</text>
</svg>