<svg xmlns="http://www.w3.org/2000/svg" width="760" height="300" viewBox="0 0 760 300" font-family="sans-serif">
<rect width="760" height="300" fill="#ffffff"/>
<text x="50" y="16" font-size="13" fill="#111">空き容量の推移（直近24時間・disk_guardian.log実測）</text>
<rect x="165.0" y="20" width="28.8" height="240" fill="#ef4444" opacity="0.12"/><rect x="280.0" y="20" width="28.8" height="240" fill="#ef4444" opacity="0.12"/><rect x="423.8" y="20" width="28.8" height="240" fill="#ef4444" opacity="0.12"/><rect x="452.5" y="20" width="28.8" height="240" fill="#ef4444" opacity="0.12"/><rect x="481.2" y="20" width="28.8" height="240" fill="#ef4444" opacity="0.12"/><rect x="682.5" y="20" width="28.8" height="240" fill="#ef4444" opacity="0.12"/><rect x="711.2" y="20" width="28.8" height="240" fill="#ef4444" opacity="0.12"/>
<polyline points="50.0,20.0 78.8,25.9 107.5,22.9 136.2,34.6 165.0,24.4 193.8,40.5 222.5,50.7 251.2,63.9 280.0,63.9 308.8,102.0 337.5,87.3 366.2,99.0 395.0,112.2 423.8,118.0 452.5,135.6 481.2,151.7 510.0,166.3 538.8,173.7 567.5,186.8 596.2,198.5 625.0,208.8 653.8,213.2 682.5,226.3 711.2,243.9 740.0,260.0" fill="none" stroke="#2563eb" stroke-width="2"/>
<circle cx="50.0" cy="20.0" r="3" fill="#2563eb"/><circle cx="78.8" cy="25.9" r="3" fill="#2563eb"/><circle cx="107.5" cy="22.9" r="3" fill="#2563eb"/><circle cx="136.2" cy="34.6" r="3" fill="#2563eb"/><circle cx="165.0" cy="24.4" r="3" fill="#2563eb"/><circle cx="193.8" cy="40.5" r="3" fill="#2563eb"/><circle cx="222.5" cy="50.7" r="3" fill="#2563eb"/><circle cx="251.2" cy="63.9" r="3" fill="#2563eb"/><circle cx="280.0" cy="63.9" r="3" fill="#2563eb"/><circle cx="308.8" cy="102.0" r="3" fill="#2563eb"/><circle cx="337.5" cy="87.3" r="3" fill="#2563eb"/><circle cx="366.2" cy="99.0" r="3" fill="#2563eb"/><circle cx="395.0" cy="112.2" r="3" fill="#2563eb"/><circle cx="423.8" cy="118.0" r="3" fill="#2563eb"/><circle cx="452.5" cy="135.6" r="3" fill="#2563eb"/><circle cx="481.2" cy="151.7" r="3" fill="#2563eb"/><circle cx="510.0" cy="166.3" r="3" fill="#2563eb"/><circle cx="538.8" cy="173.7" r="3" fill="#2563eb"/><circle cx="567.5" cy="186.8" r="3" fill="#2563eb"/><circle cx="596.2" cy="198.5" r="3" fill="#2563eb"/><circle cx="625.0" cy="208.8" r="3" fill="#2563eb"/><circle cx="653.8" cy="213.2" r="3" fill="#2563eb"/><circle cx="682.5" cy="226.3" r="3" fill="#2563eb"/><circle cx="711.2" cy="243.9" r="3" fill="#2563eb"/><circle cx="740.0" cy="260.0" r="3" fill="#2563eb"/>
<text x="5" y="24.0" font-size="11" fill="#2563eb">106.4GB</text>
<text x="5" y="264.0" font-size="11" fill="#2563eb">90.0GB</text>
<text x="50.0" y="275" font-size="10" fill="#555" text-anchor="middle">00:48</text><text x="136.2" y="275" font-size="10" fill="#555" text-anchor="middle">03:48</text><text x="222.5" y="275" font-size="10" fill="#555" text-anchor="middle">06:48</text><text x="308.8" y="275" font-size="10" fill="#555" text-anchor="middle">09:48</text><text x="395.0" y="275" font-size="10" fill="#555" text-anchor="middle">12:48</text><text x="481.2" y="275" font-size="10" fill="#555" text-anchor="middle">15:48</text><text x="567.5" y="275" font-size="10" fill="#555" text-anchor="middle">18:48</text><text x="653.8" y="275" font-size="10" fill="#555" text-anchor="middle">21:48</text><text x="740.0" y="275" font-size="10" fill="#555" text-anchor="middle">00:48</text>
</svg>